<mxfile host="app.diagrams.net" agent="Mozilla/5.0 (Windows NT 10.0; Win64; x64) AppleWebKit/537.36 (KHTML, like Gecko) Chrome/135.0.0.0 Safari/537.36 Edg/135.0.0.0" version="26.2.4">
  <diagram name="페이지-1" id="uuy63WmwbdW7DcjkDLRZ">
    <mxGraphModel dx="3822" dy="1206" grid="1" gridSize="10" guides="1" tooltips="1" connect="1" arrows="1" fold="1" page="1" pageScale="1" pageWidth="827" pageHeight="1169" math="0" shadow="0">
      <root>
        <mxCell id="0" />
        <mxCell id="1" parent="0" />
        <mxCell id="JxTuWyFHGjKXvP8H2Vxi-1" value="Rendezvous" style="rounded=0;whiteSpace=wrap;html=1;" vertex="1" parent="1">
          <mxGeometry x="-440" y="420" width="190" height="90" as="geometry" />
        </mxCell>
        <mxCell id="JxTuWyFHGjKXvP8H2Vxi-2" value="Conductor Manager" style="rounded=0;whiteSpace=wrap;html=1;" vertex="1" parent="1">
          <mxGeometry x="-180" y="420" width="190" height="90" as="geometry" />
        </mxCell>
        <mxCell id="JxTuWyFHGjKXvP8H2Vxi-3" value="Sentral Stage" style="rounded=0;whiteSpace=wrap;html=1;" vertex="1" parent="1">
          <mxGeometry x="80" y="420" width="190" height="90" as="geometry" />
        </mxCell>
        <mxCell id="JxTuWyFHGjKXvP8H2Vxi-4" value="" style="rounded=0;whiteSpace=wrap;html=1;" vertex="1" parent="1">
          <mxGeometry x="-850" y="680" width="170" height="430" as="geometry" />
        </mxCell>
        <mxCell id="JxTuWyFHGjKXvP8H2Vxi-5" value="Rendezvous" style="text;html=1;align=center;verticalAlign=middle;whiteSpace=wrap;rounded=0;" vertex="1" parent="1">
          <mxGeometry x="-820" y="680" width="110" height="40" as="geometry" />
        </mxCell>
        <mxCell id="JxTuWyFHGjKXvP8H2Vxi-7" value="Foyer" style="rounded=1;whiteSpace=wrap;html=1;" vertex="1" parent="1">
          <mxGeometry x="-825" y="740" width="120" height="60" as="geometry" />
        </mxCell>
        <mxCell id="JxTuWyFHGjKXvP8H2Vxi-8" value="Outbound Sentinel" style="rounded=1;whiteSpace=wrap;html=1;" vertex="1" parent="1">
          <mxGeometry x="-825" y="1020" width="120" height="60" as="geometry" />
        </mxCell>
        <mxCell id="JxTuWyFHGjKXvP8H2Vxi-9" value="Inbound Sentinel" style="rounded=1;whiteSpace=wrap;html=1;" vertex="1" parent="1">
          <mxGeometry x="-825" y="810" width="120" height="60" as="geometry" />
        </mxCell>
        <mxCell id="JxTuWyFHGjKXvP8H2Vxi-10" value="Normalizer" style="rounded=1;whiteSpace=wrap;html=1;" vertex="1" parent="1">
          <mxGeometry x="-825" y="880" width="120" height="60" as="geometry" />
        </mxCell>
        <mxCell id="JxTuWyFHGjKXvP8H2Vxi-11" value="Interpreter" style="rounded=1;whiteSpace=wrap;html=1;" vertex="1" parent="1">
          <mxGeometry x="-825" y="950" width="120" height="60" as="geometry" />
        </mxCell>
        <mxCell id="JxTuWyFHGjKXvP8H2Vxi-12" value="" style="rounded=0;whiteSpace=wrap;html=1;" vertex="1" parent="1">
          <mxGeometry x="-630" y="680" width="220" height="430" as="geometry" />
        </mxCell>
        <mxCell id="JxTuWyFHGjKXvP8H2Vxi-13" value="Conductor Manager" style="text;html=1;align=center;verticalAlign=middle;whiteSpace=wrap;rounded=0;" vertex="1" parent="1">
          <mxGeometry x="-570" y="680" width="110" height="40" as="geometry" />
        </mxCell>
        <mxCell id="JxTuWyFHGjKXvP8H2Vxi-19" value="Guardian" style="rounded=1;whiteSpace=wrap;html=1;" vertex="1" parent="1">
          <mxGeometry x="-580" y="740" width="120" height="60" as="geometry" />
        </mxCell>
        <mxCell id="JxTuWyFHGjKXvP8H2Vxi-20" value="Conductor" style="rounded=1;whiteSpace=wrap;html=1;" vertex="1" parent="1">
          <mxGeometry x="-600" y="830" width="120" height="60" as="geometry" />
        </mxCell>
        <mxCell id="JxTuWyFHGjKXvP8H2Vxi-21" value="Conductor" style="rounded=1;whiteSpace=wrap;html=1;" vertex="1" parent="1">
          <mxGeometry x="-590" y="840" width="120" height="60" as="geometry" />
        </mxCell>
        <mxCell id="JxTuWyFHGjKXvP8H2Vxi-22" value="Conductor" style="rounded=1;whiteSpace=wrap;html=1;" vertex="1" parent="1">
          <mxGeometry x="-580" y="850" width="120" height="60" as="geometry" />
        </mxCell>
        <mxCell id="JxTuWyFHGjKXvP8H2Vxi-23" value="Conductor" style="rounded=1;whiteSpace=wrap;html=1;" vertex="1" parent="1">
          <mxGeometry x="-570" y="860" width="120" height="60" as="geometry" />
        </mxCell>
        <mxCell id="JxTuWyFHGjKXvP8H2Vxi-24" value="Conductor" style="rounded=1;whiteSpace=wrap;html=1;" vertex="1" parent="1">
          <mxGeometry x="-560" y="870" width="120" height="60" as="geometry" />
        </mxCell>
        <mxCell id="JxTuWyFHGjKXvP8H2Vxi-26" value="" style="rounded=0;whiteSpace=wrap;html=1;" vertex="1" parent="1">
          <mxGeometry x="-370" y="680" width="240" height="430" as="geometry" />
        </mxCell>
        <mxCell id="JxTuWyFHGjKXvP8H2Vxi-27" value="Sentral Stage" style="text;html=1;align=center;verticalAlign=middle;whiteSpace=wrap;rounded=0;" vertex="1" parent="1">
          <mxGeometry x="-305" y="680" width="110" height="40" as="geometry" />
        </mxCell>
        <mxCell id="JxTuWyFHGjKXvP8H2Vxi-30" value="Horizon" style="rounded=1;whiteSpace=wrap;html=1;" vertex="1" parent="1">
          <mxGeometry x="-330" y="830" width="120" height="60" as="geometry" />
        </mxCell>
        <mxCell id="JxTuWyFHGjKXvP8H2Vxi-31" value="Horizon" style="rounded=1;whiteSpace=wrap;html=1;" vertex="1" parent="1">
          <mxGeometry x="-320" y="840" width="120" height="60" as="geometry" />
        </mxCell>
        <mxCell id="JxTuWyFHGjKXvP8H2Vxi-32" value="Horizon" style="rounded=1;whiteSpace=wrap;html=1;" vertex="1" parent="1">
          <mxGeometry x="-310" y="850" width="120" height="60" as="geometry" />
        </mxCell>
        <mxCell id="JxTuWyFHGjKXvP8H2Vxi-33" value="Horizon" style="rounded=1;whiteSpace=wrap;html=1;" vertex="1" parent="1">
          <mxGeometry x="-300" y="860" width="120" height="60" as="geometry" />
        </mxCell>
        <mxCell id="JxTuWyFHGjKXvP8H2Vxi-34" value="Horizon" style="rounded=1;whiteSpace=wrap;html=1;" vertex="1" parent="1">
          <mxGeometry x="-290" y="870" width="120" height="60" as="geometry" />
        </mxCell>
        <mxCell id="JxTuWyFHGjKXvP8H2Vxi-36" value="Orchestrator" style="rounded=1;whiteSpace=wrap;html=1;" vertex="1" parent="1">
          <mxGeometry x="-310" y="740" width="120" height="60" as="geometry" />
        </mxCell>
      </root>
    </mxGraphModel>
  </diagram>
</mxfile>
